<svg xmlns="http://www.w3.org/2000/svg" viewBox="0 0 640 420"><rect width="640" height="420" rx="34" fill="#f4f8ff"/><path d="M105 134h162l34 38h234v158c0 25-20 45-45 45H105c-25 0-45-20-45-45V179c0-25 20-45 45-45z" fill="#174fe7"/><path d="M78 196h484v143c0 20-16 36-36 36H114c-20 0-36-16-36-36V196z" fill="#ffffff" opacity=".96"/><rect x="129" y="236" width="250" height="18" rx="9" fill="#c6d4ef"/><rect x="129" y="278" width="330" height="18" rx="9" fill="#d9e2f3"/><rect x="129" y="320" width="210" height="18" rx="9" fill="#c6d4ef"/></svg>